<svg xmlns="http://www.w3.org/2000/svg" xmlns:xlink="http://www.w3.org/1999/xlink" width="500" zoomAndPan="magnify" viewBox="0 0 375 374.999991" height="500" preserveAspectRatio="xMidYMid meet" version="1.0"><defs><g/></defs><rect x="-37.5" width="450" fill="#ffffff" y="-37.499999" height="449.999989" fill-opacity="1"/><rect x="-37.5" width="450" fill="#ffffff" y="-37.499999" height="449.999989" fill-opacity="1"/><g fill="#ffbd59" fill-opacity="1"><g transform="translate(37.500002, 288.69291)"><g><path d="M 193.4375 -208.875 L 186.15625 -174.296875 L 88.71875 -174.296875 L 78.296875 -125.4375 L 163.4375 -125.4375 L 156.296875 -91.71875 L 71.140625 -91.71875 L 59 -34.578125 L 158.71875 -34.578125 L 151.4375 0 L 10.421875 0 L 54.71875 -208.875 Z M 193.4375 -208.875 "/></g></g></g><g fill="#ffbd59" fill-opacity="1"><g transform="translate(148.635302, 291.377574)"><g><path d="M 76.140625 3.03125 C 62.585938 3.03125 50.59375 1.109375 40.15625 -2.734375 C 29.726562 -6.585938 21.195312 -11.613281 14.5625 -17.8125 C 7.925781 -24.007812 3.117188 -30.8125 0.140625 -38.21875 L 28.125 -63.875 L 31.71875 -63.875 C 36.050781 -54.457031 42.492188 -46.957031 51.046875 -41.375 C 59.597656 -35.800781 70.414062 -33.015625 83.5 -33.015625 C 94.550781 -33.015625 103.441406 -35.273438 110.171875 -39.796875 C 116.898438 -44.316406 121.082031 -50.421875 122.71875 -58.109375 C 123.289062 -60.703125 123.578125 -63.109375 123.578125 -65.328125 C 123.578125 -70.804688 121.726562 -75.300781 118.03125 -78.8125 C 114.332031 -82.320312 108.25 -85.273438 99.78125 -87.671875 L 79.171875 -93.4375 C 63.878906 -97.769531 51.929688 -104.5 43.328125 -113.625 C 34.722656 -122.757812 30.421875 -133.863281 30.421875 -146.9375 C 30.421875 -151.164062 30.953125 -155.78125 32.015625 -160.78125 C 35.472656 -176.738281 43.929688 -189.570312 57.390625 -199.28125 C 70.847656 -209 90.507812 -213.859375 116.375 -213.859375 C 132.71875 -213.859375 146.488281 -211.550781 157.6875 -206.9375 C 168.882812 -202.320312 177.847656 -195.253906 184.578125 -185.734375 L 158.1875 -159.484375 L 154.578125 -159.484375 C 149.867188 -165.734375 144.003906 -170.421875 136.984375 -173.546875 C 129.972656 -176.671875 121.515625 -178.234375 111.609375 -178.234375 C 100.359375 -178.234375 91.320312 -176.359375 84.5 -172.609375 C 77.675781 -168.859375 73.59375 -163.8125 72.25 -157.46875 C 71.769531 -155.257812 71.53125 -153.335938 71.53125 -151.703125 C 71.53125 -146.410156 73.425781 -142.035156 77.21875 -138.578125 C 81.019531 -135.117188 86.765625 -132.378906 94.453125 -130.359375 L 117.53125 -124.15625 C 133.488281 -119.832031 145.671875 -113.488281 154.078125 -105.125 C 162.492188 -96.757812 166.703125 -85.847656 166.703125 -72.390625 C 166.703125 -67.296875 166.078125 -61.960938 164.828125 -56.390625 C 156.367188 -16.773438 126.804688 3.03125 76.140625 3.03125 Z M 76.140625 3.03125 "/></g></g></g></svg>